<?xml version="1.0" standalone="no"?>
<!DOCTYPE svg PUBLIC "-//W3C//DTD SVG 1.1//EN" "http://www.w3.org/Graphics/SVG/1.1/DTD/svg11.dtd">

<svg width="400px" height="400px" version="1.1" xmlns="http://www.w3.org/2000/svg">
<rect width="400px" height="400px" style="fill:rgb(255,255,255);stroke-width:0;stroke:rgb(0,0,0)"/>
<line x1="0px" y1="0px" x2="10px" y2="0px" style="stroke:rgb(0,0,0);stroke-width:1"/>
<line x1="10px" y1="0px" x2="10px" y2="10px" style="stroke:rgb(0,0,0);stroke-width:1"/>
<line x1="10px" y1="10px" x2="0px" y2="10px" style="stroke:rgb(0,0,0);stroke-width:1"/>
<line x1="0px" y1="10px" x2="0px" y2="20px" style="stroke:rgb(0,0,0);stroke-width:1"/>
<line x1="0px" y1="20px" x2="10px" y2="20px" style="stroke:rgb(0,0,0);stroke-width:1"/>
<line x1="10px" y1="20px" x2="10px" y2="30px" style="stroke:rgb(0,0,0);stroke-width:1"/>
<line x1="10px" y1="30px" x2="0px" y2="30px" style="stroke:rgb(0,0,0);stroke-width:1"/>
<line x1="0px" y1="30px" x2="0px" y2="40px" style="stroke:rgb(0,0,0);stroke-width:1"/>
<line x1="400px" y1="0px" x2="390px" y2="0px" style="stroke:rgb(0,0,0);stroke-width:1"/>
<line x1="390px" y1="0px" x2="390px" y2="10px" style="stroke:rgb(0,0,0);stroke-width:1"/>
<line x1="390px" y1="10px" x2="400px" y2="10px" style="stroke:rgb(0,0,0);stroke-width:1"/>
<line x1="400px" y1="10px" x2="400px" y2="20px" style="stroke:rgb(0,0,0);stroke-width:1"/>
<line x1="400px" y1="20px" x2="390px" y2="20px" style="stroke:rgb(0,0,0);stroke-width:1"/>
<line x1="390px" y1="20px" x2="390px" y2="30px" style="stroke:rgb(0,0,0);stroke-width:1"/>
<line x1="390px" y1="30px" x2="400px" y2="30px" style="stroke:rgb(0,0,0);stroke-width:1"/>
<line x1="400px" y1="30px" x2="400px" y2="40px" style="stroke:rgb(0,0,0);stroke-width:1"/>
<line x1="180px" y1="40px" x2="180px" y2="30px" style="stroke:rgb(0,0,0);stroke-width:1"/>
<line x1="180px" y1="30px" x2="190px" y2="30px" style="stroke:rgb(0,0,0);stroke-width:1"/>
<line x1="190px" y1="30px" x2="190px" y2="40px" style="stroke:rgb(0,0,0);stroke-width:1"/>
<line x1="190px" y1="40px" x2="200px" y2="40px" style="stroke:rgb(0,0,0);stroke-width:1"/>
<line x1="200px" y1="40px" x2="200px" y2="30px" style="stroke:rgb(0,0,0);stroke-width:1"/>
<line x1="200px" y1="30px" x2="210px" y2="30px" style="stroke:rgb(0,0,0);stroke-width:1"/>
<line x1="210px" y1="30px" x2="210px" y2="40px" style="stroke:rgb(0,0,0);stroke-width:1"/>
<line x1="210px" y1="40px" x2="220px" y2="40px" style="stroke:rgb(0,0,0);stroke-width:1"/>
<line x1="100px" y1="70px" x2="100px" y2="60px" style="stroke:rgb(0,0,0);stroke-width:1"/>
<line x1="100px" y1="60px" x2="110px" y2="60px" style="stroke:rgb(0,0,0);stroke-width:1"/>
<line x1="110px" y1="60px" x2="110px" y2="70px" style="stroke:rgb(0,0,0);stroke-width:1"/>
<line x1="110px" y1="70px" x2="120px" y2="70px" style="stroke:rgb(0,0,0);stroke-width:1"/>
<line x1="120px" y1="70px" x2="120px" y2="60px" style="stroke:rgb(0,0,0);stroke-width:1"/>
<line x1="120px" y1="60px" x2="130px" y2="60px" style="stroke:rgb(0,0,0);stroke-width:1"/>
<line x1="130px" y1="60px" x2="130px" y2="70px" style="stroke:rgb(0,0,0);stroke-width:1"/>
<line x1="130px" y1="70px" x2="140px" y2="70px" style="stroke:rgb(0,0,0);stroke-width:1"/>
<line x1="300px" y1="70px" x2="300px" y2="60px" style="stroke:rgb(0,0,0);stroke-width:1"/>
<line x1="300px" y1="60px" x2="290px" y2="60px" style="stroke:rgb(0,0,0);stroke-width:1"/>
<line x1="290px" y1="60px" x2="290px" y2="70px" style="stroke:rgb(0,0,0);stroke-width:1"/>
<line x1="290px" y1="70px" x2="280px" y2="70px" style="stroke:rgb(0,0,0);stroke-width:1"/>
<line x1="280px" y1="70px" x2="280px" y2="60px" style="stroke:rgb(0,0,0);stroke-width:1"/>
<line x1="280px" y1="60px" x2="270px" y2="60px" style="stroke:rgb(0,0,0);stroke-width:1"/>
<line x1="270px" y1="60px" x2="270px" y2="70px" style="stroke:rgb(0,0,0);stroke-width:1"/>
<line x1="270px" y1="70px" x2="260px" y2="70px" style="stroke:rgb(0,0,0);stroke-width:1"/>
<line x1="50px" y1="120px" x2="50px" y2="110px" style="stroke:rgb(0,0,0);stroke-width:1"/>
<line x1="50px" y1="110px" x2="60px" y2="110px" style="stroke:rgb(0,0,0);stroke-width:1"/>
<line x1="60px" y1="110px" x2="60px" y2="120px" style="stroke:rgb(0,0,0);stroke-width:1"/>
<line x1="60px" y1="120px" x2="70px" y2="120px" style="stroke:rgb(0,0,0);stroke-width:1"/>
<line x1="70px" y1="120px" x2="70px" y2="110px" style="stroke:rgb(0,0,0);stroke-width:1"/>
<line x1="70px" y1="110px" x2="80px" y2="110px" style="stroke:rgb(0,0,0);stroke-width:1"/>
<line x1="80px" y1="110px" x2="80px" y2="120px" style="stroke:rgb(0,0,0);stroke-width:1"/>
<line x1="80px" y1="120px" x2="90px" y2="120px" style="stroke:rgb(0,0,0);stroke-width:1"/>
<line x1="350px" y1="120px" x2="350px" y2="110px" style="stroke:rgb(0,0,0);stroke-width:1"/>
<line x1="350px" y1="110px" x2="340px" y2="110px" style="stroke:rgb(0,0,0);stroke-width:1"/>
<line x1="340px" y1="110px" x2="340px" y2="120px" style="stroke:rgb(0,0,0);stroke-width:1"/>
<line x1="340px" y1="120px" x2="330px" y2="120px" style="stroke:rgb(0,0,0);stroke-width:1"/>
<line x1="330px" y1="120px" x2="330px" y2="110px" style="stroke:rgb(0,0,0);stroke-width:1"/>
<line x1="330px" y1="110px" x2="320px" y2="110px" style="stroke:rgb(0,0,0);stroke-width:1"/>
<line x1="320px" y1="110px" x2="320px" y2="120px" style="stroke:rgb(0,0,0);stroke-width:1"/>
<line x1="320px" y1="120px" x2="310px" y2="120px" style="stroke:rgb(0,0,0);stroke-width:1"/>
<line x1="140px" y1="160px" x2="140px" y2="120px" style="stroke:rgb(0,0,0);stroke-width:1"/>
<line x1="140px" y1="120px" x2="180px" y2="120px" style="stroke:rgb(0,0,0);stroke-width:1"/>
<line x1="180px" y1="120px" x2="180px" y2="160px" style="stroke:rgb(0,0,0);stroke-width:1"/>
<line x1="180px" y1="160px" x2="220px" y2="160px" style="stroke:rgb(0,0,0);stroke-width:1"/>
<line x1="220px" y1="160px" x2="220px" y2="120px" style="stroke:rgb(0,0,0);stroke-width:1"/>
<line x1="220px" y1="120px" x2="260px" y2="120px" style="stroke:rgb(0,0,0);stroke-width:1"/>
<line x1="260px" y1="120px" x2="260px" y2="160px" style="stroke:rgb(0,0,0);stroke-width:1"/>
<line x1="260px" y1="160px" x2="300px" y2="160px" style="stroke:rgb(0,0,0);stroke-width:1"/>
<line x1="30px" y1="200px" x2="30px" y2="190px" style="stroke:rgb(0,0,0);stroke-width:1"/>
<line x1="30px" y1="190px" x2="40px" y2="190px" style="stroke:rgb(0,0,0);stroke-width:1"/>
<line x1="40px" y1="190px" x2="40px" y2="200px" style="stroke:rgb(0,0,0);stroke-width:1"/>
<line x1="40px" y1="200px" x2="50px" y2="200px" style="stroke:rgb(0,0,0);stroke-width:1"/>
<line x1="50px" y1="200px" x2="50px" y2="190px" style="stroke:rgb(0,0,0);stroke-width:1"/>
<line x1="50px" y1="190px" x2="60px" y2="190px" style="stroke:rgb(0,0,0);stroke-width:1"/>
<line x1="60px" y1="190px" x2="60px" y2="200px" style="stroke:rgb(0,0,0);stroke-width:1"/>
<line x1="60px" y1="200px" x2="70px" y2="200px" style="stroke:rgb(0,0,0);stroke-width:1"/>
<line x1="370px" y1="200px" x2="370px" y2="190px" style="stroke:rgb(0,0,0);stroke-width:1"/>
<line x1="370px" y1="190px" x2="360px" y2="190px" style="stroke:rgb(0,0,0);stroke-width:1"/>
<line x1="360px" y1="190px" x2="360px" y2="200px" style="stroke:rgb(0,0,0);stroke-width:1"/>
<line x1="360px" y1="200px" x2="350px" y2="200px" style="stroke:rgb(0,0,0);stroke-width:1"/>
<line x1="350px" y1="200px" x2="350px" y2="190px" style="stroke:rgb(0,0,0);stroke-width:1"/>
<line x1="350px" y1="190px" x2="340px" y2="190px" style="stroke:rgb(0,0,0);stroke-width:1"/>
<line x1="340px" y1="190px" x2="340px" y2="200px" style="stroke:rgb(0,0,0);stroke-width:1"/>
<line x1="340px" y1="200px" x2="330px" y2="200px" style="stroke:rgb(0,0,0);stroke-width:1"/>
<line x1="160px" y1="210px" x2="160px" y2="182px" style="stroke:rgb(0,0,0);stroke-width:1"/>
<line x1="160px" y1="182px" x2="188px" y2="182px" style="stroke:rgb(0,0,0);stroke-width:1"/>
<line x1="188px" y1="182px" x2="188px" y2="210px" style="stroke:rgb(0,0,0);stroke-width:1"/>
<line x1="188px" y1="210px" x2="216px" y2="210px" style="stroke:rgb(0,0,0);stroke-width:1"/>
<line x1="216px" y1="210px" x2="216px" y2="182px" style="stroke:rgb(0,0,0);stroke-width:1"/>
<line x1="216px" y1="182px" x2="244px" y2="182px" style="stroke:rgb(0,0,0);stroke-width:1"/>
<line x1="244px" y1="182px" x2="244px" y2="210px" style="stroke:rgb(0,0,0);stroke-width:1"/>
<line x1="244px" y1="210px" x2="272px" y2="210px" style="stroke:rgb(0,0,0);stroke-width:1"/>
<line x1="170px" y1="250px" x2="170px" y2="230px" style="stroke:rgb(0,0,0);stroke-width:1"/>
<line x1="170px" y1="230px" x2="190px" y2="230px" style="stroke:rgb(0,0,0);stroke-width:1"/>
<line x1="190px" y1="230px" x2="190px" y2="250px" style="stroke:rgb(0,0,0);stroke-width:1"/>
<line x1="190px" y1="250px" x2="210px" y2="250px" style="stroke:rgb(0,0,0);stroke-width:1"/>
<line x1="210px" y1="250px" x2="210px" y2="230px" style="stroke:rgb(0,0,0);stroke-width:1"/>
<line x1="210px" y1="230px" x2="230px" y2="230px" style="stroke:rgb(0,0,0);stroke-width:1"/>
<line x1="230px" y1="230px" x2="230px" y2="250px" style="stroke:rgb(0,0,0);stroke-width:1"/>
<line x1="230px" y1="250px" x2="250px" y2="250px" style="stroke:rgb(0,0,0);stroke-width:1"/>
<line x1="180px" y1="270px" x2="180px" y2="260px" style="stroke:rgb(0,0,0);stroke-width:1"/>
<line x1="180px" y1="260px" x2="190px" y2="260px" style="stroke:rgb(0,0,0);stroke-width:1"/>
<line x1="190px" y1="260px" x2="190px" y2="270px" style="stroke:rgb(0,0,0);stroke-width:1"/>
<line x1="190px" y1="270px" x2="200px" y2="270px" style="stroke:rgb(0,0,0);stroke-width:1"/>
<line x1="200px" y1="270px" x2="200px" y2="260px" style="stroke:rgb(0,0,0);stroke-width:1"/>
<line x1="200px" y1="260px" x2="210px" y2="260px" style="stroke:rgb(0,0,0);stroke-width:1"/>
<line x1="210px" y1="260px" x2="210px" y2="270px" style="stroke:rgb(0,0,0);stroke-width:1"/>
<line x1="210px" y1="270px" x2="220px" y2="270px" style="stroke:rgb(0,0,0);stroke-width:1"/>
<line x1="50px" y1="280px" x2="50px" y2="290px" style="stroke:rgb(0,0,0);stroke-width:1"/>
<line x1="50px" y1="290px" x2="60px" y2="290px" style="stroke:rgb(0,0,0);stroke-width:1"/>
<line x1="60px" y1="290px" x2="60px" y2="280px" style="stroke:rgb(0,0,0);stroke-width:1"/>
<line x1="60px" y1="280px" x2="70px" y2="280px" style="stroke:rgb(0,0,0);stroke-width:1"/>
<line x1="70px" y1="280px" x2="70px" y2="290px" style="stroke:rgb(0,0,0);stroke-width:1"/>
<line x1="70px" y1="290px" x2="80px" y2="290px" style="stroke:rgb(0,0,0);stroke-width:1"/>
<line x1="80px" y1="290px" x2="80px" y2="280px" style="stroke:rgb(0,0,0);stroke-width:1"/>
<line x1="80px" y1="280px" x2="90px" y2="280px" style="stroke:rgb(0,0,0);stroke-width:1"/>
<line x1="350px" y1="280px" x2="350px" y2="290px" style="stroke:rgb(0,0,0);stroke-width:1"/>
<line x1="350px" y1="290px" x2="340px" y2="290px" style="stroke:rgb(0,0,0);stroke-width:1"/>
<line x1="340px" y1="290px" x2="340px" y2="280px" style="stroke:rgb(0,0,0);stroke-width:1"/>
<line x1="340px" y1="280px" x2="330px" y2="280px" style="stroke:rgb(0,0,0);stroke-width:1"/>
<line x1="330px" y1="280px" x2="330px" y2="290px" style="stroke:rgb(0,0,0);stroke-width:1"/>
<line x1="330px" y1="290px" x2="320px" y2="290px" style="stroke:rgb(0,0,0);stroke-width:1"/>
<line x1="320px" y1="290px" x2="320px" y2="280px" style="stroke:rgb(0,0,0);stroke-width:1"/>
<line x1="320px" y1="280px" x2="310px" y2="280px" style="stroke:rgb(0,0,0);stroke-width:1"/>
<line x1="190px" y1="290px" x2="190px" y2="284px" style="stroke:rgb(0,0,0);stroke-width:1"/>
<line x1="190px" y1="284px" x2="196px" y2="284px" style="stroke:rgb(0,0,0);stroke-width:1"/>
<line x1="196px" y1="284px" x2="196px" y2="290px" style="stroke:rgb(0,0,0);stroke-width:1"/>
<line x1="196px" y1="290px" x2="202px" y2="290px" style="stroke:rgb(0,0,0);stroke-width:1"/>
<line x1="202px" y1="290px" x2="202px" y2="284px" style="stroke:rgb(0,0,0);stroke-width:1"/>
<line x1="202px" y1="284px" x2="208px" y2="284px" style="stroke:rgb(0,0,0);stroke-width:1"/>
<line x1="208px" y1="284px" x2="208px" y2="290px" style="stroke:rgb(0,0,0);stroke-width:1"/>
<line x1="208px" y1="290px" x2="214px" y2="290px" style="stroke:rgb(0,0,0);stroke-width:1"/>
<line x1="100px" y1="320px" x2="100px" y2="330px" style="stroke:rgb(0,0,0);stroke-width:1"/>
<line x1="100px" y1="330px" x2="110px" y2="330px" style="stroke:rgb(0,0,0);stroke-width:1"/>
<line x1="110px" y1="330px" x2="110px" y2="320px" style="stroke:rgb(0,0,0);stroke-width:1"/>
<line x1="110px" y1="320px" x2="120px" y2="320px" style="stroke:rgb(0,0,0);stroke-width:1"/>
<line x1="120px" y1="320px" x2="120px" y2="330px" style="stroke:rgb(0,0,0);stroke-width:1"/>
<line x1="120px" y1="330px" x2="130px" y2="330px" style="stroke:rgb(0,0,0);stroke-width:1"/>
<line x1="130px" y1="330px" x2="130px" y2="320px" style="stroke:rgb(0,0,0);stroke-width:1"/>
<line x1="130px" y1="320px" x2="140px" y2="320px" style="stroke:rgb(0,0,0);stroke-width:1"/>
<line x1="300px" y1="320px" x2="300px" y2="330px" style="stroke:rgb(0,0,0);stroke-width:1"/>
<line x1="300px" y1="330px" x2="290px" y2="330px" style="stroke:rgb(0,0,0);stroke-width:1"/>
<line x1="290px" y1="330px" x2="290px" y2="320px" style="stroke:rgb(0,0,0);stroke-width:1"/>
<line x1="290px" y1="320px" x2="280px" y2="320px" style="stroke:rgb(0,0,0);stroke-width:1"/>
<line x1="280px" y1="320px" x2="280px" y2="330px" style="stroke:rgb(0,0,0);stroke-width:1"/>
<line x1="280px" y1="330px" x2="270px" y2="330px" style="stroke:rgb(0,0,0);stroke-width:1"/>
<line x1="270px" y1="330px" x2="270px" y2="320px" style="stroke:rgb(0,0,0);stroke-width:1"/>
<line x1="270px" y1="320px" x2="260px" y2="320px" style="stroke:rgb(0,0,0);stroke-width:1"/>
<line x1="180px" y1="360px" x2="180px" y2="350px" style="stroke:rgb(0,0,0);stroke-width:1"/>
<line x1="180px" y1="350px" x2="190px" y2="350px" style="stroke:rgb(0,0,0);stroke-width:1"/>
<line x1="190px" y1="350px" x2="190px" y2="360px" style="stroke:rgb(0,0,0);stroke-width:1"/>
<line x1="190px" y1="360px" x2="200px" y2="360px" style="stroke:rgb(0,0,0);stroke-width:1"/>
<line x1="200px" y1="360px" x2="200px" y2="350px" style="stroke:rgb(0,0,0);stroke-width:1"/>
<line x1="200px" y1="350px" x2="210px" y2="350px" style="stroke:rgb(0,0,0);stroke-width:1"/>
<line x1="210px" y1="350px" x2="210px" y2="360px" style="stroke:rgb(0,0,0);stroke-width:1"/>
<line x1="210px" y1="360px" x2="220px" y2="360px" style="stroke:rgb(0,0,0);stroke-width:1"/>
<line x1="0px" y1="360px" x2="10px" y2="360px" style="stroke:rgb(0,0,0);stroke-width:1"/>
<line x1="10px" y1="360px" x2="10px" y2="370px" style="stroke:rgb(0,0,0);stroke-width:1"/>
<line x1="10px" y1="370px" x2="0px" y2="370px" style="stroke:rgb(0,0,0);stroke-width:1"/>
<line x1="0px" y1="370px" x2="0px" y2="380px" style="stroke:rgb(0,0,0);stroke-width:1"/>
<line x1="0px" y1="380px" x2="10px" y2="380px" style="stroke:rgb(0,0,0);stroke-width:1"/>
<line x1="10px" y1="380px" x2="10px" y2="390px" style="stroke:rgb(0,0,0);stroke-width:1"/>
<line x1="10px" y1="390px" x2="0px" y2="390px" style="stroke:rgb(0,0,0);stroke-width:1"/>
<line x1="0px" y1="390px" x2="0px" y2="400px" style="stroke:rgb(0,0,0);stroke-width:1"/>
<line x1="400px" y1="360px" x2="390px" y2="360px" style="stroke:rgb(0,0,0);stroke-width:1"/>
<line x1="390px" y1="360px" x2="390px" y2="370px" style="stroke:rgb(0,0,0);stroke-width:1"/>
<line x1="390px" y1="370px" x2="400px" y2="370px" style="stroke:rgb(0,0,0);stroke-width:1"/>
<line x1="400px" y1="370px" x2="400px" y2="380px" style="stroke:rgb(0,0,0);stroke-width:1"/>
<line x1="400px" y1="380px" x2="390px" y2="380px" style="stroke:rgb(0,0,0);stroke-width:1"/>
<line x1="390px" y1="380px" x2="390px" y2="390px" style="stroke:rgb(0,0,0);stroke-width:1"/>
<line x1="390px" y1="390px" x2="400px" y2="390px" style="stroke:rgb(0,0,0);stroke-width:1"/>
<line x1="400px" y1="390px" x2="400px" y2="400px" style="stroke:rgb(0,0,0);stroke-width:1"/>
</svg>
